<svg width="100" height="100" viewBox="0 0 100 100" fill="none" xmlns="http://www.w3.org/2000/svg">
<g clip-path="url(#clip0_1_4)">
<circle cx="25" cy="25" r="25" fill="#E8EEF1"/>
<circle cx="75" cy="75" r="25" fill="#E8EEF1"/>
<circle cx="25" cy="75" r="25" fill="#E8EEF1"/>
<path d="M33.4 25.72C33.4 27.1867 33.1867 28.52 32.76 29.72C32.36 30.8933 31.7867 31.9067 31.04 32.76C30.2933 33.6133 29.4 34.28 28.36 34.76C27.32 35.2133 26.1867 35.44 24.96 35.44C23.76 35.44 22.64 35.2133 21.6 34.76C20.5867 34.28 19.7067 33.6133 18.96 32.76C18.2133 31.9067 17.6267 30.8933 17.2 29.72C16.8 28.52 16.6 27.1867 16.6 25.72C16.6 24.2533 16.8 22.92 17.2 21.72C17.6267 20.52 18.2133 19.5067 18.96 18.68C19.7067 17.8267 20.5867 17.1733 21.6 16.72C22.64 16.24 23.76 16 24.96 16C26.1867 16 27.32 16.24 28.36 16.72C29.4 17.1733 30.2933 17.8267 31.04 18.68C31.7867 19.5067 32.36 20.52 32.76 21.72C33.1867 22.92 33.4 24.2533 33.4 25.72ZM30 25.72C30 23.6133 29.5467 21.96 28.64 20.76C27.7333 19.5333 26.5067 18.92 24.96 18.92C23.44 18.92 22.2267 19.5333 21.32 20.76C20.44 21.96 20 23.6133 20 25.72C20 27.8 20.44 29.4533 21.32 30.68C22.2267 31.88 23.44 32.48 24.96 32.48C26.5067 32.48 27.7333 31.88 28.64 30.68C29.5467 29.4533 30 27.8 30 25.72Z" fill="#3A535F"/>
<path d="M16.64 66.96C18.24 66.3467 19.7467 66.04 21.16 66.04C21.9333 66.04 22.6533 66.16 23.32 66.4C24.0133 66.6133 24.6 66.96 25.08 67.44C26.2267 66.5067 27.4533 66.04 28.76 66.04C29.4 66.04 30 66.16 30.56 66.4C31.1467 66.64 31.6533 67 32.08 67.48C32.5333 67.96 32.8933 68.56 33.16 69.28C33.4267 70 33.56 70.84 33.56 71.8V85H30.56V71.72C30.56 70.76 30.3467 70.0267 29.92 69.52C29.4933 69.0133 28.96 68.76 28.32 68.76C28 68.76 27.6667 68.84 27.32 69C26.9733 69.16 26.6533 69.4133 26.36 69.76C26.52 70.3733 26.6 71.0533 26.6 71.8V77.84H23.6V71.76C23.6 70.8267 23.4533 70.0933 23.16 69.56C22.8667 69.0267 22.2933 68.76 21.44 68.76C20.9067 68.76 20.3067 68.88 19.64 69.12V85H16.64V66.96Z" fill="#3A535F"/>
<path d="M67.84 85V57.84L71.16 57.28V66.72C71.6933 66.5067 72.2933 66.3467 72.96 66.24C73.6267 66.1067 74.28 66.04 74.92 66.04C76.3333 66.04 77.5067 66.2533 78.44 66.68C79.4 67.08 80.16 67.6533 80.72 68.4C81.28 69.1467 81.68 70.04 81.92 71.08C82.16 72.12 82.28 73.2667 82.28 74.52V85H79V75.24C79 72.9467 78.68 71.3333 78.04 70.4C77.4 69.44 76.2533 68.96 74.6 68.96C73.9067 68.96 73.2267 69.04 72.56 69.2C71.92 69.3333 71.4533 69.4667 71.16 69.6V85H67.84Z" fill="#3A535F"/>
</g>
<defs>
<clipPath id="clip0_1_4">
<rect width="100" height="100" fill="white"/>
</clipPath>
</defs>
</svg>
